# xmcd CD database file
#
# Track frame offsets:
#	150
#	21442
#	38723
#	51671
#	71352
#	88052
#	102700
#	125019
#	140661
#	160905
#
# Disc length: 2451 seconds
#
# Revision: 3
# Processed by: cddbd v1.5.2PL0 Copyright (c) Steve Scherf et al.
# Submitted via: CDex 1.51
#
DISCID=9609910a
DTITLE=Vaughan Brothers - Family Style
DYEAR=1990
DGENRE=Blues
TTITLE0=Hard To Be
TTITLE1=White Boots
TTITLE2=D/FW
TTITLE3=Good Texan
TTITLE4=Hillbillies From Outerspace
TTITLE5=Long Way From Home
TTITLE6=Tick Tock
TTITLE7=Telephone Song
TTITLE8=Baboom/Mama Said
TTITLE9=Brothers
EXTD=YEAR: 1990
EXTT0=
EXTT1=
EXTT2=
EXTT3=
EXTT4=
EXTT5=
EXTT6=
EXTT7=
EXTT8=
EXTT9=
PLAYORDER=
